<svg width="19" height="22" viewBox="0 0 19 22" fill="none" xmlns="http://www.w3.org/2000/svg">
  <path
    d="M18.3754 17.1447C18.0427 17.9133 17.6489 18.6208 17.1926 19.2713C16.5706 20.158 16.0614 20.7719 15.6689 21.1127C15.0605 21.6722 14.4087 21.9587 13.7107 21.975C13.2096 21.975 12.6053 21.8324 11.9019 21.5432C11.1961 21.2553 10.5476 21.1127 9.95453 21.1127C9.33257 21.1127 8.66553 21.2553 7.95205 21.5432C7.23748 21.8324 6.66183 21.9832 6.22171 21.9981C5.55236 22.0266 4.88518 21.7319 4.21922 21.1127C3.79417 20.742 3.26252 20.1064 2.62563 19.2061C1.94229 18.2446 1.38049 17.1297 0.940372 15.8587C0.469016 14.4857 0.232727 13.1563 0.232727 11.8692C0.232727 10.3948 0.55131 9.12321 1.18943 8.0576C1.69093 7.20166 2.35811 6.52647 3.19313 6.03081C4.02816 5.53514 4.9304 5.28256 5.90204 5.2664C6.43369 5.2664 7.13088 5.43085 7.99727 5.75405C8.86122 6.07833 9.41595 6.24279 9.65917 6.24279C9.841 6.24279 10.4573 6.0505 11.502 5.66714C12.4899 5.31162 13.3237 5.16441 14.0068 5.2224C15.8577 5.37178 17.2483 6.10142 18.173 7.41595C16.5177 8.41896 15.6988 9.82379 15.7151 11.626C15.73 13.0297 16.2393 14.1979 17.2401 15.1254C17.6937 15.5558 18.2002 15.8885 18.7638 16.1248C18.6416 16.4793 18.5125 16.8188 18.3754 17.1447ZM14.1303 0.440122C14.1303 1.54037 13.7284 2.56768 12.9272 3.51854C11.9603 4.64892 10.7908 5.30211 9.52256 5.19904C9.5064 5.06704 9.49703 4.92812 9.49703 4.78214C9.49703 3.7259 9.95684 2.59551 10.7734 1.67127C11.1811 1.20331 11.6995 0.814206 12.3283 0.503812C12.9557 0.198048 13.5491 0.0289522 14.1072 0C14.1235 0.147083 14.1303 0.294194 14.1303 0.440122Z"
    fill="black" />
</svg>