<svg width="20" height="20" viewBox="0 0 20 20" fill="none" xmlns="http://www.w3.org/2000/svg">
<path id="Vector" fill-rule="evenodd" clip-rule="evenodd" d="M10 0C4.47499 0 0 4.58816 0 10.2529C0 14.7899 2.86249 18.6219 6.83748 19.9804C7.33748 20.0701 7.525 19.7625 7.525 19.4934C7.525 19.2499 7.5125 18.4425 7.5125 17.5838C5 18.058 4.34998 16.9558 4.15 16.3791C4.03749 16.0843 3.54998 15.1743 3.12498 14.9309C2.77499 14.7386 2.27502 14.2644 3.11248 14.2516C3.90001 14.2388 4.46249 14.9949 4.65001 15.3025C5.55001 16.8533 6.98749 16.4175 7.5625 16.1484C7.64997 15.4819 7.9125 15.0334 8.19999 14.777C5.97501 14.5207 3.64999 13.6364 3.64999 9.71465C3.64999 8.59965 4.03749 7.67688 4.67501 6.95916C4.575 6.70284 4.225 5.65192 4.77498 4.24212C4.77498 4.24212 5.61248 3.973 7.525 5.29308C8.325 5.06236 9.175 4.94704 10.025 4.94704C10.875 4.94704 11.725 5.06236 12.525 5.29308C14.4375 3.96016 15.275 4.24212 15.275 4.24212C15.825 5.65192 15.475 6.70284 15.375 6.95916C16.0125 7.67688 16.4 8.58681 16.4 9.71465C16.4 13.6492 14.0625 14.5207 11.8375 14.777C12.2 15.0975 12.5125 15.7126 12.5125 16.6739C12.5125 18.0452 12.5 19.1474 12.5 19.4934C12.5 19.7625 12.6875 20.0829 13.1875 19.9804C17.1375 18.6219 20 14.7771 20 10.2529C20 4.58816 15.525 0 10 0Z" fill="black"/>
</svg>
