<svg width="25" height="24" viewBox="0 0 25 24" fill="none" xmlns="http://www.w3.org/2000/svg">
<g id="dark_theme_24_filled">
<path id="Vector" d="M12.5 22C15.1522 22 17.6957 20.9464 19.5711 19.0711C21.4464 17.1957 22.5 14.6522 22.5 12C22.5 9.34784 21.4464 6.8043 19.5711 4.92893C17.6957 3.05357 15.1522 2 12.5 2C9.84784 2 7.3043 3.05357 5.42893 4.92893C3.55357 6.8043 2.5 9.34784 2.5 12C2.5 14.6522 3.55357 17.1957 5.42893 19.0711C7.3043 20.9464 9.84784 22 12.5 22ZM12.5 20V4C14.6217 4 16.6566 4.84285 18.1569 6.34315C19.6571 7.84344 20.5 9.87827 20.5 12C20.5 14.1217 19.6571 16.1566 18.1569 17.6569C16.6566 19.1571 14.6217 20 12.5 20Z" fill="black"/>
</g>
</svg>
